G04 #@! TF.FileFunction,Copper,L1,Top,Signal*
%FSLAX45Y45*%
G04 Gerber Fmt 4.5, Leading zero omitted, Abs format (unit mm)*
G04 Created by KiCad (PCBNEW 4.0.7) date 02/07/18 19:58:28*
%MOMM*%
%LPD*%
G01*
G04 APERTURE LIST*
%ADD10C,0.100000*%
%ADD11R,3.000000X3.000000*%
%ADD12R,0.889000X1.397000*%
%ADD13R,0.762000X0.863600*%
%ADD14C,1.500000*%
%ADD15R,1.300000X1.500000*%
%ADD16C,1.000000*%
%ADD17C,0.254000*%
G04 APERTURE END LIST*
D10*
D11*
X16475000Y-10925000D03*
D12*
X15025000Y-10725070D03*
D13*
X15025000Y-10901600D03*
D11*
X14325000Y-10225000D03*
X14325000Y-10900000D03*
X16475000Y-10225000D03*
D14*
X15825000Y-10125000D03*
D15*
X15400000Y-10190000D03*
X15400000Y-10460000D03*
X15400000Y-10690000D03*
X15400000Y-10960000D03*
D16*
X15825000Y-10125000D02*
X15825000Y-10231066D01*
X15825000Y-10231066D02*
X15850000Y-10256066D01*
X15850000Y-10256066D02*
X15850000Y-10425000D01*
X15850000Y-10425000D02*
X16050000Y-10225000D01*
X16050000Y-10225000D02*
X16475000Y-10225000D01*
X15555000Y-10425000D02*
X15850000Y-10425000D01*
X15400000Y-10435000D02*
X15545000Y-10435000D01*
X15545000Y-10435000D02*
X15555000Y-10425000D01*
X15025000Y-10725070D02*
X15389930Y-10725070D01*
X15389930Y-10725070D02*
X15400000Y-10715000D01*
X15400000Y-10435000D02*
X15400000Y-10715000D01*
X15400000Y-10935000D02*
X16465000Y-10935000D01*
X16465000Y-10935000D02*
X16475000Y-10925000D01*
X15025000Y-10901600D02*
X14326600Y-10901600D01*
X14326600Y-10901600D02*
X14325000Y-10900000D01*
X15400000Y-10935000D02*
X15058400Y-10935000D01*
X15058400Y-10935000D02*
X15025000Y-10901600D01*
X14325000Y-10225000D02*
X15390000Y-10225000D01*
X15390000Y-10225000D02*
X15400000Y-10215000D01*
D17*
G36*
X16679000Y-10041653D02*
X16671409Y-10029856D01*
X16650189Y-10015357D01*
X16625000Y-10010256D01*
X16325000Y-10010256D01*
X16301468Y-10014684D01*
X16279856Y-10028591D01*
X16265357Y-10049811D01*
X16260256Y-10075000D01*
X16260256Y-10111500D01*
X16050000Y-10111500D01*
X16006565Y-10120140D01*
X15973002Y-10142566D01*
X15969743Y-10144743D01*
X15963477Y-10151010D01*
X15963524Y-10097572D01*
X15942483Y-10046649D01*
X15903556Y-10007654D01*
X15852670Y-9986524D01*
X15797571Y-9986476D01*
X15746648Y-10007517D01*
X15707654Y-10046444D01*
X15686524Y-10097330D01*
X15686476Y-10152429D01*
X15707517Y-10203352D01*
X15711500Y-10207342D01*
X15711500Y-10231066D01*
X15720140Y-10274501D01*
X15736500Y-10298986D01*
X15736500Y-10311500D01*
X15555000Y-10311500D01*
X15511565Y-10320140D01*
X15509530Y-10321500D01*
X15494462Y-10321500D01*
X15510144Y-10311409D01*
X15524643Y-10290189D01*
X15529744Y-10265000D01*
X15529744Y-10115000D01*
X15525316Y-10091468D01*
X15511409Y-10069856D01*
X15490189Y-10055357D01*
X15465000Y-10050256D01*
X15335000Y-10050256D01*
X15311468Y-10054684D01*
X15289856Y-10068591D01*
X15275357Y-10089811D01*
X15270965Y-10111500D01*
X14539744Y-10111500D01*
X14539744Y-10075000D01*
X14535316Y-10051468D01*
X14521409Y-10029856D01*
X14500189Y-10015357D01*
X14475000Y-10010256D01*
X14175000Y-10010256D01*
X14151468Y-10014684D01*
X14129856Y-10028591D01*
X14115357Y-10049811D01*
X14110256Y-10075000D01*
X14110256Y-10375000D01*
X14114684Y-10398532D01*
X14128591Y-10420144D01*
X14149811Y-10434643D01*
X14175000Y-10439744D01*
X14475000Y-10439744D01*
X14498532Y-10435316D01*
X14520144Y-10421409D01*
X14534643Y-10400189D01*
X14539744Y-10375000D01*
X14539744Y-10338500D01*
X15289997Y-10338500D01*
X15289856Y-10338591D01*
X15275357Y-10359811D01*
X15270256Y-10385000D01*
X15270256Y-10535000D01*
X15274684Y-10558532D01*
X15285376Y-10575148D01*
X15275357Y-10589811D01*
X15270951Y-10611570D01*
X15116820Y-10611570D01*
X15115859Y-10610076D01*
X15094639Y-10595577D01*
X15069450Y-10590476D01*
X14980550Y-10590476D01*
X14957018Y-10594904D01*
X14935406Y-10608811D01*
X14920907Y-10630031D01*
X14915806Y-10655220D01*
X14915806Y-10703422D01*
X14911500Y-10725070D01*
X14915806Y-10746718D01*
X14915806Y-10788100D01*
X14539744Y-10788100D01*
X14539744Y-10750000D01*
X14535316Y-10726468D01*
X14521409Y-10704856D01*
X14500189Y-10690357D01*
X14475000Y-10685256D01*
X14175000Y-10685256D01*
X14151468Y-10689684D01*
X14129856Y-10703591D01*
X14115357Y-10724811D01*
X14110256Y-10750000D01*
X14110256Y-11050000D01*
X14114684Y-11073532D01*
X14128591Y-11095144D01*
X14149811Y-11109643D01*
X14175000Y-11114744D01*
X14475000Y-11114744D01*
X14498532Y-11110316D01*
X14520144Y-11096409D01*
X14534643Y-11075189D01*
X14539744Y-11050000D01*
X14539744Y-11015100D01*
X14977987Y-11015100D01*
X14978143Y-11015257D01*
X15014965Y-11039860D01*
X15058400Y-11048500D01*
X15272796Y-11048500D01*
X15274684Y-11058532D01*
X15288591Y-11080144D01*
X15309811Y-11094643D01*
X15335000Y-11099744D01*
X15465000Y-11099744D01*
X15488532Y-11095316D01*
X15510144Y-11081409D01*
X15524643Y-11060189D01*
X15527010Y-11048500D01*
X16260256Y-11048500D01*
X16260256Y-11075000D01*
X16264684Y-11098532D01*
X16278591Y-11120144D01*
X16299811Y-11134643D01*
X16325000Y-11139744D01*
X16625000Y-11139744D01*
X16648532Y-11135316D01*
X16670144Y-11121409D01*
X16679000Y-11108448D01*
X16679000Y-11329000D01*
X13971000Y-11329000D01*
X13971000Y-9821000D01*
X16679000Y-9821000D01*
X16679000Y-10041653D01*
X16679000Y-10041653D01*
G37*
X16679000Y-10041653D02*
X16671409Y-10029856D01*
X16650189Y-10015357D01*
X16625000Y-10010256D01*
X16325000Y-10010256D01*
X16301468Y-10014684D01*
X16279856Y-10028591D01*
X16265357Y-10049811D01*
X16260256Y-10075000D01*
X16260256Y-10111500D01*
X16050000Y-10111500D01*
X16006565Y-10120140D01*
X15973002Y-10142566D01*
X15969743Y-10144743D01*
X15963477Y-10151010D01*
X15963524Y-10097572D01*
X15942483Y-10046649D01*
X15903556Y-10007654D01*
X15852670Y-9986524D01*
X15797571Y-9986476D01*
X15746648Y-10007517D01*
X15707654Y-10046444D01*
X15686524Y-10097330D01*
X15686476Y-10152429D01*
X15707517Y-10203352D01*
X15711500Y-10207342D01*
X15711500Y-10231066D01*
X15720140Y-10274501D01*
X15736500Y-10298986D01*
X15736500Y-10311500D01*
X15555000Y-10311500D01*
X15511565Y-10320140D01*
X15509530Y-10321500D01*
X15494462Y-10321500D01*
X15510144Y-10311409D01*
X15524643Y-10290189D01*
X15529744Y-10265000D01*
X15529744Y-10115000D01*
X15525316Y-10091468D01*
X15511409Y-10069856D01*
X15490189Y-10055357D01*
X15465000Y-10050256D01*
X15335000Y-10050256D01*
X15311468Y-10054684D01*
X15289856Y-10068591D01*
X15275357Y-10089811D01*
X15270965Y-10111500D01*
X14539744Y-10111500D01*
X14539744Y-10075000D01*
X14535316Y-10051468D01*
X14521409Y-10029856D01*
X14500189Y-10015357D01*
X14475000Y-10010256D01*
X14175000Y-10010256D01*
X14151468Y-10014684D01*
X14129856Y-10028591D01*
X14115357Y-10049811D01*
X14110256Y-10075000D01*
X14110256Y-10375000D01*
X14114684Y-10398532D01*
X14128591Y-10420144D01*
X14149811Y-10434643D01*
X14175000Y-10439744D01*
X14475000Y-10439744D01*
X14498532Y-10435316D01*
X14520144Y-10421409D01*
X14534643Y-10400189D01*
X14539744Y-10375000D01*
X14539744Y-10338500D01*
X15289997Y-10338500D01*
X15289856Y-10338591D01*
X15275357Y-10359811D01*
X15270256Y-10385000D01*
X15270256Y-10535000D01*
X15274684Y-10558532D01*
X15285376Y-10575148D01*
X15275357Y-10589811D01*
X15270951Y-10611570D01*
X15116820Y-10611570D01*
X15115859Y-10610076D01*
X15094639Y-10595577D01*
X15069450Y-10590476D01*
X14980550Y-10590476D01*
X14957018Y-10594904D01*
X14935406Y-10608811D01*
X14920907Y-10630031D01*
X14915806Y-10655220D01*
X14915806Y-10703422D01*
X14911500Y-10725070D01*
X14915806Y-10746718D01*
X14915806Y-10788100D01*
X14539744Y-10788100D01*
X14539744Y-10750000D01*
X14535316Y-10726468D01*
X14521409Y-10704856D01*
X14500189Y-10690357D01*
X14475000Y-10685256D01*
X14175000Y-10685256D01*
X14151468Y-10689684D01*
X14129856Y-10703591D01*
X14115357Y-10724811D01*
X14110256Y-10750000D01*
X14110256Y-11050000D01*
X14114684Y-11073532D01*
X14128591Y-11095144D01*
X14149811Y-11109643D01*
X14175000Y-11114744D01*
X14475000Y-11114744D01*
X14498532Y-11110316D01*
X14520144Y-11096409D01*
X14534643Y-11075189D01*
X14539744Y-11050000D01*
X14539744Y-11015100D01*
X14977987Y-11015100D01*
X14978143Y-11015257D01*
X15014965Y-11039860D01*
X15058400Y-11048500D01*
X15272796Y-11048500D01*
X15274684Y-11058532D01*
X15288591Y-11080144D01*
X15309811Y-11094643D01*
X15335000Y-11099744D01*
X15465000Y-11099744D01*
X15488532Y-11095316D01*
X15510144Y-11081409D01*
X15524643Y-11060189D01*
X15527010Y-11048500D01*
X16260256Y-11048500D01*
X16260256Y-11075000D01*
X16264684Y-11098532D01*
X16278591Y-11120144D01*
X16299811Y-11134643D01*
X16325000Y-11139744D01*
X16625000Y-11139744D01*
X16648532Y-11135316D01*
X16670144Y-11121409D01*
X16679000Y-11108448D01*
X16679000Y-11329000D01*
X13971000Y-11329000D01*
X13971000Y-9821000D01*
X16679000Y-9821000D01*
X16679000Y-10041653D01*
G36*
X16260256Y-10375000D02*
X16264684Y-10398532D01*
X16278591Y-10420144D01*
X16299811Y-10434643D01*
X16325000Y-10439744D01*
X16625000Y-10439744D01*
X16648532Y-10435316D01*
X16670144Y-10421409D01*
X16679000Y-10408448D01*
X16679000Y-10741653D01*
X16671409Y-10729856D01*
X16650189Y-10715357D01*
X16625000Y-10710256D01*
X16325000Y-10710256D01*
X16301468Y-10714684D01*
X16279856Y-10728591D01*
X16265357Y-10749811D01*
X16260256Y-10775000D01*
X16260256Y-10821500D01*
X15494462Y-10821500D01*
X15510144Y-10811409D01*
X15524643Y-10790189D01*
X15529744Y-10765000D01*
X15529744Y-10615000D01*
X15525316Y-10591468D01*
X15514624Y-10574852D01*
X15524643Y-10560189D01*
X15527010Y-10548500D01*
X15545000Y-10548500D01*
X15588435Y-10539860D01*
X15590470Y-10538500D01*
X15850000Y-10538500D01*
X15893435Y-10529860D01*
X15930257Y-10505257D01*
X16097013Y-10338500D01*
X16260256Y-10338500D01*
X16260256Y-10375000D01*
X16260256Y-10375000D01*
G37*
X16260256Y-10375000D02*
X16264684Y-10398532D01*
X16278591Y-10420144D01*
X16299811Y-10434643D01*
X16325000Y-10439744D01*
X16625000Y-10439744D01*
X16648532Y-10435316D01*
X16670144Y-10421409D01*
X16679000Y-10408448D01*
X16679000Y-10741653D01*
X16671409Y-10729856D01*
X16650189Y-10715357D01*
X16625000Y-10710256D01*
X16325000Y-10710256D01*
X16301468Y-10714684D01*
X16279856Y-10728591D01*
X16265357Y-10749811D01*
X16260256Y-10775000D01*
X16260256Y-10821500D01*
X15494462Y-10821500D01*
X15510144Y-10811409D01*
X15524643Y-10790189D01*
X15529744Y-10765000D01*
X15529744Y-10615000D01*
X15525316Y-10591468D01*
X15514624Y-10574852D01*
X15524643Y-10560189D01*
X15527010Y-10548500D01*
X15545000Y-10548500D01*
X15588435Y-10539860D01*
X15590470Y-10538500D01*
X15850000Y-10538500D01*
X15893435Y-10529860D01*
X15930257Y-10505257D01*
X16097013Y-10338500D01*
X16260256Y-10338500D01*
X16260256Y-10375000D01*
M02*
