G04 #@! TF.FileFunction,Legend,Bot*
%FSLAX45Y45*%
G04 Gerber Fmt 4.5, Leading zero omitted, Abs format (unit mm)*
G04 Created by KiCad (PCBNEW 4.0.7) date 02/07/18 19:58:28*
%MOMM*%
%LPD*%
G01*
G04 APERTURE LIST*
%ADD10C,0.100000*%
%ADD11C,0.125000*%
G04 APERTURE END LIST*
D10*
D11*
X15742857Y-10426488D02*
X15776190Y-10378869D01*
X15800000Y-10426488D02*
X15800000Y-10326488D01*
X15761905Y-10326488D01*
X15752381Y-10331250D01*
X15747619Y-10336012D01*
X15742857Y-10345536D01*
X15742857Y-10359821D01*
X15747619Y-10369345D01*
X15752381Y-10374107D01*
X15761905Y-10378869D01*
X15800000Y-10378869D01*
X15657143Y-10426488D02*
X15657143Y-10374107D01*
X15661905Y-10364583D01*
X15671428Y-10359821D01*
X15690476Y-10359821D01*
X15700000Y-10364583D01*
X15657143Y-10421726D02*
X15666667Y-10426488D01*
X15690476Y-10426488D01*
X15700000Y-10421726D01*
X15704762Y-10412202D01*
X15704762Y-10402679D01*
X15700000Y-10393155D01*
X15690476Y-10388393D01*
X15666667Y-10388393D01*
X15657143Y-10383631D01*
X15609524Y-10359821D02*
X15609524Y-10459821D01*
X15609524Y-10364583D02*
X15600000Y-10359821D01*
X15580952Y-10359821D01*
X15571428Y-10364583D01*
X15566667Y-10369345D01*
X15561905Y-10378869D01*
X15561905Y-10407441D01*
X15566667Y-10416964D01*
X15571428Y-10421726D01*
X15580952Y-10426488D01*
X15600000Y-10426488D01*
X15609524Y-10421726D01*
X15519048Y-10426488D02*
X15519048Y-10359821D01*
X15519048Y-10326488D02*
X15523809Y-10331250D01*
X15519048Y-10336012D01*
X15514286Y-10331250D01*
X15519048Y-10326488D01*
X15519048Y-10336012D01*
X15428571Y-10426488D02*
X15428571Y-10326488D01*
X15428571Y-10421726D02*
X15438095Y-10426488D01*
X15457143Y-10426488D01*
X15466667Y-10421726D01*
X15471429Y-10416964D01*
X15476190Y-10407441D01*
X15476190Y-10378869D01*
X15471429Y-10369345D01*
X15466667Y-10364583D01*
X15457143Y-10359821D01*
X15438095Y-10359821D01*
X15428571Y-10364583D01*
X15333333Y-10426488D02*
X15380952Y-10426488D01*
X15380952Y-10326488D01*
X15300000Y-10374107D02*
X15266667Y-10374107D01*
X15252381Y-10426488D02*
X15300000Y-10426488D01*
X15300000Y-10326488D01*
X15252381Y-10326488D01*
X15209524Y-10426488D02*
X15209524Y-10326488D01*
X15185714Y-10326488D01*
X15171428Y-10331250D01*
X15161905Y-10340774D01*
X15157143Y-10350298D01*
X15152381Y-10369345D01*
X15152381Y-10383631D01*
X15157143Y-10402679D01*
X15161905Y-10412202D01*
X15171428Y-10421726D01*
X15185714Y-10426488D01*
X15209524Y-10426488D01*
X15038095Y-10336012D02*
X15033333Y-10331250D01*
X15023809Y-10326488D01*
X15000000Y-10326488D01*
X14990476Y-10331250D01*
X14985714Y-10336012D01*
X14980952Y-10345536D01*
X14980952Y-10355060D01*
X14985714Y-10369345D01*
X15042857Y-10426488D01*
X14980952Y-10426488D01*
X14919048Y-10326488D02*
X14909524Y-10326488D01*
X14900000Y-10331250D01*
X14895238Y-10336012D01*
X14890476Y-10345536D01*
X14885714Y-10364583D01*
X14885714Y-10388393D01*
X14890476Y-10407441D01*
X14895238Y-10416964D01*
X14900000Y-10421726D01*
X14909524Y-10426488D01*
X14919048Y-10426488D01*
X14928571Y-10421726D01*
X14933333Y-10416964D01*
X14938095Y-10407441D01*
X14942857Y-10388393D01*
X14942857Y-10364583D01*
X14938095Y-10345536D01*
X14933333Y-10336012D01*
X14928571Y-10331250D01*
X14919048Y-10326488D01*
X14790476Y-10426488D02*
X14847619Y-10426488D01*
X14819048Y-10426488D02*
X14819048Y-10326488D01*
X14828571Y-10340774D01*
X14838095Y-10350298D01*
X14847619Y-10355060D01*
X14733333Y-10369345D02*
X14742857Y-10364583D01*
X14747619Y-10359821D01*
X14752381Y-10350298D01*
X14752381Y-10345536D01*
X14747619Y-10336012D01*
X14742857Y-10331250D01*
X14733333Y-10326488D01*
X14714286Y-10326488D01*
X14704762Y-10331250D01*
X14700000Y-10336012D01*
X14695238Y-10345536D01*
X14695238Y-10350298D01*
X14700000Y-10359821D01*
X14704762Y-10364583D01*
X14714286Y-10369345D01*
X14733333Y-10369345D01*
X14742857Y-10374107D01*
X14747619Y-10378869D01*
X14752381Y-10388393D01*
X14752381Y-10407441D01*
X14747619Y-10416964D01*
X14742857Y-10421726D01*
X14733333Y-10426488D01*
X14714286Y-10426488D01*
X14704762Y-10421726D01*
X14700000Y-10416964D01*
X14695238Y-10407441D01*
X14695238Y-10388393D01*
X14700000Y-10378869D01*
X14704762Y-10374107D01*
X14714286Y-10369345D01*
X15783333Y-10751488D02*
X15840476Y-10751488D01*
X15811905Y-10751488D02*
X15811905Y-10651488D01*
X15821429Y-10665774D01*
X15830952Y-10675298D01*
X15840476Y-10680060D01*
X15721429Y-10651488D02*
X15711905Y-10651488D01*
X15702381Y-10656250D01*
X15697619Y-10661012D01*
X15692857Y-10670536D01*
X15688095Y-10689583D01*
X15688095Y-10713393D01*
X15692857Y-10732441D01*
X15697619Y-10741964D01*
X15702381Y-10746726D01*
X15711905Y-10751488D01*
X15721429Y-10751488D01*
X15730952Y-10746726D01*
X15735714Y-10741964D01*
X15740476Y-10732441D01*
X15745238Y-10713393D01*
X15745238Y-10689583D01*
X15740476Y-10670536D01*
X15735714Y-10661012D01*
X15730952Y-10656250D01*
X15721429Y-10651488D01*
X15654762Y-10684821D02*
X15630952Y-10751488D01*
X15607143Y-10684821D01*
X15507143Y-10684821D02*
X15469048Y-10684821D01*
X15492857Y-10651488D02*
X15492857Y-10737202D01*
X15488095Y-10746726D01*
X15478571Y-10751488D01*
X15469048Y-10751488D01*
X15421429Y-10751488D02*
X15430952Y-10746726D01*
X15435714Y-10741964D01*
X15440476Y-10732441D01*
X15440476Y-10703869D01*
X15435714Y-10694345D01*
X15430952Y-10689583D01*
X15421429Y-10684821D01*
X15407143Y-10684821D01*
X15397619Y-10689583D01*
X15392857Y-10694345D01*
X15388095Y-10703869D01*
X15388095Y-10732441D01*
X15392857Y-10741964D01*
X15397619Y-10746726D01*
X15407143Y-10751488D01*
X15421429Y-10751488D01*
X15221428Y-10651488D02*
X15269048Y-10651488D01*
X15273809Y-10699107D01*
X15269048Y-10694345D01*
X15259524Y-10689583D01*
X15235714Y-10689583D01*
X15226190Y-10694345D01*
X15221428Y-10699107D01*
X15216667Y-10708631D01*
X15216667Y-10732441D01*
X15221428Y-10741964D01*
X15226190Y-10746726D01*
X15235714Y-10751488D01*
X15259524Y-10751488D01*
X15269048Y-10746726D01*
X15273809Y-10741964D01*
X15188095Y-10651488D02*
X15154762Y-10751488D01*
X15121428Y-10651488D01*
X14964286Y-10751488D02*
X15011905Y-10751488D01*
X15011905Y-10651488D01*
X14916667Y-10751488D02*
X14926190Y-10746726D01*
X14930952Y-10741964D01*
X14935714Y-10732441D01*
X14935714Y-10703869D01*
X14930952Y-10694345D01*
X14926190Y-10689583D01*
X14916667Y-10684821D01*
X14902381Y-10684821D01*
X14892857Y-10689583D01*
X14888095Y-10694345D01*
X14883333Y-10703869D01*
X14883333Y-10732441D01*
X14888095Y-10741964D01*
X14892857Y-10746726D01*
X14902381Y-10751488D01*
X14916667Y-10751488D01*
X14797619Y-10684821D02*
X14797619Y-10765774D01*
X14802381Y-10775298D01*
X14807143Y-10780060D01*
X14816667Y-10784821D01*
X14830952Y-10784821D01*
X14840476Y-10780060D01*
X14797619Y-10746726D02*
X14807143Y-10751488D01*
X14826190Y-10751488D01*
X14835714Y-10746726D01*
X14840476Y-10741964D01*
X14845238Y-10732441D01*
X14845238Y-10703869D01*
X14840476Y-10694345D01*
X14835714Y-10689583D01*
X14826190Y-10684821D01*
X14807143Y-10684821D01*
X14797619Y-10689583D01*
X14750000Y-10751488D02*
X14750000Y-10684821D01*
X14750000Y-10651488D02*
X14754762Y-10656250D01*
X14750000Y-10661012D01*
X14745238Y-10656250D01*
X14750000Y-10651488D01*
X14750000Y-10661012D01*
X14659524Y-10746726D02*
X14669047Y-10751488D01*
X14688095Y-10751488D01*
X14697619Y-10746726D01*
X14702381Y-10741964D01*
X14707143Y-10732441D01*
X14707143Y-10703869D01*
X14702381Y-10694345D01*
X14697619Y-10689583D01*
X14688095Y-10684821D01*
X14669047Y-10684821D01*
X14659524Y-10689583D01*
X15371428Y-10913988D02*
X15404762Y-10866369D01*
X15428571Y-10913988D02*
X15428571Y-10813988D01*
X15390476Y-10813988D01*
X15380952Y-10818750D01*
X15376190Y-10823512D01*
X15371428Y-10833036D01*
X15371428Y-10847321D01*
X15376190Y-10856845D01*
X15380952Y-10861607D01*
X15390476Y-10866369D01*
X15428571Y-10866369D01*
X15290476Y-10909226D02*
X15300000Y-10913988D01*
X15319048Y-10913988D01*
X15328571Y-10909226D01*
X15333333Y-10899702D01*
X15333333Y-10861607D01*
X15328571Y-10852083D01*
X15319048Y-10847321D01*
X15300000Y-10847321D01*
X15290476Y-10852083D01*
X15285714Y-10861607D01*
X15285714Y-10871131D01*
X15333333Y-10880655D01*
X15252381Y-10847321D02*
X15228571Y-10913988D01*
X15204762Y-10847321D01*
X15166667Y-10904464D02*
X15161905Y-10909226D01*
X15166667Y-10913988D01*
X15171428Y-10909226D01*
X15166667Y-10904464D01*
X15166667Y-10913988D01*
X15123809Y-10823512D02*
X15119048Y-10818750D01*
X15109524Y-10813988D01*
X15085714Y-10813988D01*
X15076190Y-10818750D01*
X15071428Y-10823512D01*
X15066667Y-10833036D01*
X15066667Y-10842560D01*
X15071428Y-10856845D01*
X15128571Y-10913988D01*
X15066667Y-10913988D01*
M02*
