G04 #@! TF.FileFunction,Legend,Top*
%FSLAX45Y45*%
G04 Gerber Fmt 4.5, Leading zero omitted, Abs format (unit mm)*
G04 Created by KiCad (PCBNEW 4.0.7) date 02/07/18 19:58:28*
%MOMM*%
%LPD*%
G01*
G04 APERTURE LIST*
%ADD10C,0.100000*%
%ADD11C,0.125000*%
%ADD12C,0.152400*%
%ADD13C,0.120000*%
%ADD14C,0.150000*%
G04 APERTURE END LIST*
D10*
D11*
X14703572Y-9972619D02*
X14686905Y-9948810D01*
X14675000Y-9972619D02*
X14675000Y-9922619D01*
X14694048Y-9922619D01*
X14698810Y-9925000D01*
X14701191Y-9927381D01*
X14703572Y-9932143D01*
X14703572Y-9939286D01*
X14701191Y-9944048D01*
X14698810Y-9946429D01*
X14694048Y-9948810D01*
X14675000Y-9948810D01*
X14746429Y-9972619D02*
X14746429Y-9946429D01*
X14744048Y-9941667D01*
X14739286Y-9939286D01*
X14729762Y-9939286D01*
X14725000Y-9941667D01*
X14746429Y-9970238D02*
X14741667Y-9972619D01*
X14729762Y-9972619D01*
X14725000Y-9970238D01*
X14722619Y-9965476D01*
X14722619Y-9960714D01*
X14725000Y-9955952D01*
X14729762Y-9953571D01*
X14741667Y-9953571D01*
X14746429Y-9951191D01*
X14770238Y-9939286D02*
X14770238Y-9989286D01*
X14770238Y-9941667D02*
X14775000Y-9939286D01*
X14784524Y-9939286D01*
X14789286Y-9941667D01*
X14791667Y-9944048D01*
X14794048Y-9948810D01*
X14794048Y-9963095D01*
X14791667Y-9967857D01*
X14789286Y-9970238D01*
X14784524Y-9972619D01*
X14775000Y-9972619D01*
X14770238Y-9970238D01*
X14815476Y-9972619D02*
X14815476Y-9939286D01*
X14815476Y-9922619D02*
X14813095Y-9925000D01*
X14815476Y-9927381D01*
X14817857Y-9925000D01*
X14815476Y-9922619D01*
X14815476Y-9927381D01*
X14860714Y-9972619D02*
X14860714Y-9922619D01*
X14860714Y-9970238D02*
X14855952Y-9972619D01*
X14846429Y-9972619D01*
X14841667Y-9970238D01*
X14839286Y-9967857D01*
X14836905Y-9963095D01*
X14836905Y-9948810D01*
X14839286Y-9944048D01*
X14841667Y-9941667D01*
X14846429Y-9939286D01*
X14855952Y-9939286D01*
X14860714Y-9941667D01*
X14908333Y-9972619D02*
X14884524Y-9972619D01*
X14884524Y-9922619D01*
X14925000Y-9946429D02*
X14941667Y-9946429D01*
X14948810Y-9972619D02*
X14925000Y-9972619D01*
X14925000Y-9922619D01*
X14948810Y-9922619D01*
X14970238Y-9972619D02*
X14970238Y-9922619D01*
X14982143Y-9922619D01*
X14989286Y-9925000D01*
X14994048Y-9929762D01*
X14996429Y-9934524D01*
X14998810Y-9944048D01*
X14998810Y-9951191D01*
X14996429Y-9960714D01*
X14994048Y-9965476D01*
X14989286Y-9970238D01*
X14982143Y-9972619D01*
X14970238Y-9972619D01*
X15055952Y-9927381D02*
X15058333Y-9925000D01*
X15063095Y-9922619D01*
X15075000Y-9922619D01*
X15079762Y-9925000D01*
X15082143Y-9927381D01*
X15084524Y-9932143D01*
X15084524Y-9936905D01*
X15082143Y-9944048D01*
X15053572Y-9972619D01*
X15084524Y-9972619D01*
X15115476Y-9922619D02*
X15120238Y-9922619D01*
X15125000Y-9925000D01*
X15127381Y-9927381D01*
X15129762Y-9932143D01*
X15132143Y-9941667D01*
X15132143Y-9953571D01*
X15129762Y-9963095D01*
X15127381Y-9967857D01*
X15125000Y-9970238D01*
X15120238Y-9972619D01*
X15115476Y-9972619D01*
X15110714Y-9970238D01*
X15108333Y-9967857D01*
X15105952Y-9963095D01*
X15103571Y-9953571D01*
X15103571Y-9941667D01*
X15105952Y-9932143D01*
X15108333Y-9927381D01*
X15110714Y-9925000D01*
X15115476Y-9922619D01*
X15179762Y-9972619D02*
X15151190Y-9972619D01*
X15165476Y-9972619D02*
X15165476Y-9922619D01*
X15160714Y-9929762D01*
X15155952Y-9934524D01*
X15151190Y-9936905D01*
X15208333Y-9944048D02*
X15203571Y-9941667D01*
X15201190Y-9939286D01*
X15198809Y-9934524D01*
X15198809Y-9932143D01*
X15201190Y-9927381D01*
X15203571Y-9925000D01*
X15208333Y-9922619D01*
X15217857Y-9922619D01*
X15222619Y-9925000D01*
X15225000Y-9927381D01*
X15227381Y-9932143D01*
X15227381Y-9934524D01*
X15225000Y-9939286D01*
X15222619Y-9941667D01*
X15217857Y-9944048D01*
X15208333Y-9944048D01*
X15203571Y-9946429D01*
X15201190Y-9948810D01*
X15198809Y-9953571D01*
X15198809Y-9963095D01*
X15201190Y-9967857D01*
X15203571Y-9970238D01*
X15208333Y-9972619D01*
X15217857Y-9972619D01*
X15222619Y-9970238D01*
X15225000Y-9967857D01*
X15227381Y-9963095D01*
X15227381Y-9953571D01*
X15225000Y-9948810D01*
X15222619Y-9946429D01*
X15217857Y-9944048D01*
D12*
X14942450Y-10652680D02*
X14942450Y-10947320D01*
X15107550Y-10947320D02*
X15107550Y-10652680D01*
D13*
X15312000Y-10385000D02*
X15312000Y-10265000D01*
X15488000Y-10265000D02*
X15488000Y-10385000D01*
X15312000Y-10885000D02*
X15312000Y-10765000D01*
X15488000Y-10765000D02*
X15488000Y-10885000D01*
D14*
X16398810Y-11175000D02*
X16389286Y-11170238D01*
X16375000Y-11170238D01*
X16360714Y-11175000D01*
X16351190Y-11184524D01*
X16346429Y-11194048D01*
X16341667Y-11213095D01*
X16341667Y-11227381D01*
X16346429Y-11246429D01*
X16351190Y-11255952D01*
X16360714Y-11265476D01*
X16375000Y-11270238D01*
X16384524Y-11270238D01*
X16398810Y-11265476D01*
X16403571Y-11260714D01*
X16403571Y-11227381D01*
X16384524Y-11227381D01*
X16446429Y-11270238D02*
X16446429Y-11170238D01*
X16503571Y-11270238D01*
X16503571Y-11170238D01*
X16551190Y-11270238D02*
X16551190Y-11170238D01*
X16575000Y-11170238D01*
X16589286Y-11175000D01*
X16598810Y-11184524D01*
X16603571Y-11194048D01*
X16608333Y-11213095D01*
X16608333Y-11227381D01*
X16603571Y-11246429D01*
X16598810Y-11255952D01*
X16589286Y-11265476D01*
X16575000Y-11270238D01*
X16551190Y-11270238D01*
X15070238Y-10873810D02*
X14970238Y-10873810D01*
X14970238Y-10850000D01*
X14975000Y-10835714D01*
X14984524Y-10826190D01*
X14994048Y-10821429D01*
X15013095Y-10816667D01*
X15027381Y-10816667D01*
X15046429Y-10821429D01*
X15055952Y-10826190D01*
X15065476Y-10835714D01*
X15070238Y-10850000D01*
X15070238Y-10873810D01*
X15070238Y-10721429D02*
X15070238Y-10778571D01*
X15070238Y-10750000D02*
X14970238Y-10750000D01*
X14984524Y-10759524D01*
X14994048Y-10769048D01*
X14998809Y-10778571D01*
X15070238Y-11233333D02*
X14970238Y-11233333D01*
X14970238Y-11209524D01*
X14975000Y-11195238D01*
X14984524Y-11185714D01*
X14994048Y-11180952D01*
X15013095Y-11176191D01*
X15027381Y-11176191D01*
X15046429Y-11180952D01*
X15055952Y-11185714D01*
X15065476Y-11195238D01*
X15070238Y-11209524D01*
X15070238Y-11233333D01*
X15079762Y-11157143D02*
X15079762Y-11080952D01*
X14970238Y-11066667D02*
X14970238Y-11000000D01*
X15070238Y-11066667D01*
X15070238Y-11000000D01*
X15065476Y-10923810D02*
X15070238Y-10933333D01*
X15070238Y-10952381D01*
X15065476Y-10961905D01*
X15055952Y-10966667D01*
X15017857Y-10966667D01*
X15008333Y-10961905D01*
X15003571Y-10952381D01*
X15003571Y-10933333D01*
X15008333Y-10923810D01*
X15017857Y-10919048D01*
X15027381Y-10919048D01*
X15036905Y-10966667D01*
X15003571Y-10876191D02*
X15070238Y-10876191D01*
X15013095Y-10876191D02*
X15008333Y-10871429D01*
X15003571Y-10861905D01*
X15003571Y-10847619D01*
X15008333Y-10838095D01*
X15017857Y-10833333D01*
X15070238Y-10833333D01*
X15065476Y-10747619D02*
X15070238Y-10757143D01*
X15070238Y-10776191D01*
X15065476Y-10785714D01*
X15055952Y-10790476D01*
X15017857Y-10790476D01*
X15008333Y-10785714D01*
X15003571Y-10776191D01*
X15003571Y-10757143D01*
X15008333Y-10747619D01*
X15017857Y-10742857D01*
X15027381Y-10742857D01*
X15036905Y-10790476D01*
X15070238Y-10700000D02*
X15003571Y-10700000D01*
X15022619Y-10700000D02*
X15013095Y-10695238D01*
X15008333Y-10690476D01*
X15003571Y-10680952D01*
X15003571Y-10671429D01*
X15079762Y-10661905D02*
X15079762Y-10585714D01*
X15041667Y-10566667D02*
X15041667Y-10519048D01*
X15070238Y-10576190D02*
X14970238Y-10542857D01*
X15070238Y-10509524D01*
X15070238Y-10428571D02*
X15070238Y-10476190D01*
X14970238Y-10476190D01*
X14970238Y-10409524D02*
X14970238Y-10352381D01*
X15070238Y-10380952D02*
X14970238Y-10380952D01*
X14267857Y-9970238D02*
X14210714Y-9970238D01*
X14239286Y-9970238D02*
X14239286Y-9870238D01*
X14229762Y-9884524D01*
X14220238Y-9894048D01*
X14210714Y-9898810D01*
X14329762Y-9870238D02*
X14339286Y-9870238D01*
X14348810Y-9875000D01*
X14353571Y-9879762D01*
X14358333Y-9889286D01*
X14363095Y-9908333D01*
X14363095Y-9932143D01*
X14358333Y-9951191D01*
X14353571Y-9960714D01*
X14348810Y-9965476D01*
X14339286Y-9970238D01*
X14329762Y-9970238D01*
X14320238Y-9965476D01*
X14315476Y-9960714D01*
X14310714Y-9951191D01*
X14305952Y-9932143D01*
X14305952Y-9908333D01*
X14310714Y-9889286D01*
X14315476Y-9879762D01*
X14320238Y-9875000D01*
X14329762Y-9870238D01*
X14396429Y-9903571D02*
X14420238Y-9970238D01*
X14444048Y-9903571D01*
X14248810Y-11200000D02*
X14239286Y-11195238D01*
X14225000Y-11195238D01*
X14210714Y-11200000D01*
X14201190Y-11209524D01*
X14196429Y-11219048D01*
X14191667Y-11238095D01*
X14191667Y-11252381D01*
X14196429Y-11271429D01*
X14201190Y-11280952D01*
X14210714Y-11290476D01*
X14225000Y-11295238D01*
X14234524Y-11295238D01*
X14248810Y-11290476D01*
X14253571Y-11285714D01*
X14253571Y-11252381D01*
X14234524Y-11252381D01*
X14296429Y-11295238D02*
X14296429Y-11195238D01*
X14353571Y-11295238D01*
X14353571Y-11195238D01*
X14401190Y-11295238D02*
X14401190Y-11195238D01*
X14425000Y-11195238D01*
X14439286Y-11200000D01*
X14448810Y-11209524D01*
X14453571Y-11219048D01*
X14458333Y-11238095D01*
X14458333Y-11252381D01*
X14453571Y-11271429D01*
X14448810Y-11280952D01*
X14439286Y-11290476D01*
X14425000Y-11295238D01*
X14401190Y-11295238D01*
X16460714Y-9845238D02*
X16413095Y-9845238D01*
X16408333Y-9892857D01*
X16413095Y-9888095D01*
X16422619Y-9883333D01*
X16446429Y-9883333D01*
X16455952Y-9888095D01*
X16460714Y-9892857D01*
X16465476Y-9902381D01*
X16465476Y-9926191D01*
X16460714Y-9935714D01*
X16455952Y-9940476D01*
X16446429Y-9945238D01*
X16422619Y-9945238D01*
X16413095Y-9940476D01*
X16408333Y-9935714D01*
X16498809Y-9878571D02*
X16522619Y-9945238D01*
X16546429Y-9878571D01*
X15698809Y-9870238D02*
X15755952Y-9870238D01*
X15727381Y-9970238D02*
X15727381Y-9870238D01*
X15789286Y-9970238D02*
X15789286Y-9870238D01*
X15827381Y-9870238D01*
X15836905Y-9875000D01*
X15841667Y-9879762D01*
X15846429Y-9889286D01*
X15846429Y-9903571D01*
X15841667Y-9913095D01*
X15836905Y-9917857D01*
X15827381Y-9922619D01*
X15789286Y-9922619D01*
X15941667Y-9970238D02*
X15884524Y-9970238D01*
X15913095Y-9970238D02*
X15913095Y-9870238D01*
X15903571Y-9884524D01*
X15894048Y-9894048D01*
X15884524Y-9898810D01*
X15615238Y-10341667D02*
X15567619Y-10375000D01*
X15615238Y-10398810D02*
X15515238Y-10398810D01*
X15515238Y-10360714D01*
X15520000Y-10351190D01*
X15524762Y-10346429D01*
X15534286Y-10341667D01*
X15548571Y-10341667D01*
X15558095Y-10346429D01*
X15562857Y-10351190D01*
X15567619Y-10360714D01*
X15567619Y-10398810D01*
X15615238Y-10246429D02*
X15615238Y-10303571D01*
X15615238Y-10275000D02*
X15515238Y-10275000D01*
X15529524Y-10284524D01*
X15539048Y-10294048D01*
X15543809Y-10303571D01*
X15615238Y-10841667D02*
X15567619Y-10875000D01*
X15615238Y-10898810D02*
X15515238Y-10898810D01*
X15515238Y-10860714D01*
X15520000Y-10851190D01*
X15524762Y-10846429D01*
X15534286Y-10841667D01*
X15548571Y-10841667D01*
X15558095Y-10846429D01*
X15562857Y-10851190D01*
X15567619Y-10860714D01*
X15567619Y-10898810D01*
X15524762Y-10803571D02*
X15520000Y-10798810D01*
X15515238Y-10789286D01*
X15515238Y-10765476D01*
X15520000Y-10755952D01*
X15524762Y-10751190D01*
X15534286Y-10746429D01*
X15543809Y-10746429D01*
X15558095Y-10751190D01*
X15615238Y-10808333D01*
X15615238Y-10746429D01*
M02*
